<?xml version="1.0" encoding="UTF-8"?>
<svg width="60px" height="60px" viewBox="0 0 60 60" version="1.1" xmlns="http://www.w3.org/2000/svg" xmlns:xlink="http://www.w3.org/1999/xlink">
    <title>eye</title>
    <g id="Drawer" stroke="none" stroke-width="1" fill="none" fill-rule="evenodd">
        <g id="eye" transform="translate(-30.000000, -30.000000)">
            <g transform="translate(30.000000, 30.000000)">
                <circle id="Oval" cx="30" cy="30" r="30"></circle>
                <g id="Group-16" transform="translate(16.200718, 18.572340)" fill="#FFFFFF">
                    <path d="M24.9071625,0.325631082 C25.3413353,0.759805051 25.3413344,1.46373921 24.9071604,1.89791204 L21.7364091,5.06735163 C24.0113285,6.59918386 26.00446,8.76772525 27.5860391,11.3955341 C24.3446538,16.7811271 19.3746277,20.2376624 13.7930196,20.2376624 C11.7292285,20.2376624 9.74904929,19.7651059 7.90894888,18.8972065 L4.2754735,22.5295447 C3.84129953,22.9637175 3.13736537,22.9637166 2.70319254,22.5295426 C2.26901972,22.0953687 2.26902064,21.3914345 2.70319461,20.9572617 L23.3348816,0.325629013 C23.7690555,-0.108543812 24.4729897,-0.108542886 24.9071625,0.325631082 Z M19.2208074,7.58389616 L17.6089413,9.19579085 C17.9935587,9.85130953 18.2140953,10.614745 18.2140953,11.4297237 C18.2140953,13.870888 16.2341902,15.8507878 13.7930196,15.8507878 C12.9783185,15.8507878 12.2149924,15.6302701 11.5594901,15.2456834 L9.95381132,16.8511447 C11.0394322,17.6224393 12.3665935,18.0759094 13.7994301,18.0759094 C17.4696599,18.0759094 20.4457807,15.1005333 20.4457807,11.4295763 C20.4457807,9.99645586 19.9921971,8.66934723 19.2208074,7.58389616 Z M13.7930196,2.55340586 C15.1034315,2.55340586 16.380134,2.74392473 17.608672,3.1051964 L15.6644539,5.04850084 C15.0727309,4.87583415 14.4468805,4.78324324 13.7994301,4.78324324 C10.1292004,4.78324324 7.1523427,7.75861941 7.1523427,11.4295763 C7.1523427,12.0775217 7.24508466,12.7037967 7.41801187,13.2958649 L4.22952092,16.4851759 C2.62236805,15.1012354 1.19392022,13.379244 0,11.3955341 C3.24138539,6.00994117 8.21141141,2.55340586 13.7930196,2.55340586 Z" id="Combined-Shape"></path>
                </g>
                <path d="M30,4.42857143 C44.12271,4.42857143 55.5714286,15.87729 55.5714286,30 C55.5714286,44.12271 44.12271,55.5714286 30,55.5714286 C15.87729,55.5714286 4.42857143,44.12271 4.42857143,30 C4.42857143,15.87729 15.87729,4.42857143 30,4.42857143 Z M30,6.42857143 C16.9818595,6.42857143 6.42857143,16.9818595 6.42857143,30 C6.42857143,43.0181405 16.9818595,53.5714286 30,53.5714286 C43.0181405,53.5714286 53.5714286,43.0181405 53.5714286,30 C53.5714286,16.9818595 43.0181405,6.42857143 30,6.42857143 Z" id="Combined-Shape" fill="#FFFFFF" fill-rule="nonzero"></path>
            </g>
        </g>
    </g>
</svg>