<?xml version="1.0" encoding="utf-8"?>
<!-- Generator: Adobe Illustrator 16.0.0, SVG Export Plug-In . SVG Version: 6.00 Build 0)  -->
<!DOCTYPE svg PUBLIC "-//W3C//DTD SVG 1.1//EN" "http://www.w3.org/Graphics/SVG/1.1/DTD/svg11.dtd">
<svg version="1.1" id="PETCARERX_LOGO_SVG" xmlns="http://www.w3.org/2000/svg" xmlns:xlink="http://www.w3.org/1999/xlink" x="0px"
	 y="0px" width="1254px" height="212px" viewBox="-627 -211.945 1254 212" enable-background="new -627 -211.945 1254 212"
	 xml:space="preserve">
  <g id="dogGroup">
<path id="IRIS_1_" d="M-364.902-142c-5,0-4-7,0-7C-361.902-149-360.902-142-364.902-142z"/>
<path id="TORSO" d="M-341.608-96.178c-15.228-6.719-27.544-12.766-40.308-22.17c-2.687-2.017-8.509-5.374-9.181-8.063
	c-0.224-1.119,0.403-5.263,2.195-4.591c20.154,6.271,44.518,14.281,64,21c0,3.358-5,6-5,6s8.224,9.39,10.016,11.181
	c4.031,4.031,8.062,6.942,9.853,10.525C-320.11-86.549-330.859-91.476-341.608-96.178L-341.608-96.178z M-366.902-152
	c5.15-1.12,8.896,2.626,8,8c-0.896,6.494-12,7-13,1C-371.902-147-370.933-150.881-366.902-152L-366.902-152z M-512.902-82
	c4.031-0.225,10.073,1.104,15,2c14.332,2.463,29.908,4.642,42,8l50-22c4.255-2.911,9.969,1.433,14,3
	c21.722,8.51,48.263,13.954,72,20c8.286,2.016,16.386,5.984,24,8c8.957,4.927,17.714,8.626,26,14c10.749,7.166,21.163,17.371,29,27
	c3-2,4-4,7-7c20.154-17.019,40.548-34.502,56-56c-30.231-20.602-60.697-40.514-91.6-60.22l0,0c-2.015,0.896-2.239,3.807-5.15,4.255
	c-2.687,0.448-5.339-1.483-8.25-1.035c-5.15,0.671-5.089,3.643-8,7c-9.181-3.807-18.043-7.521-27-12c-5.15-2.463-9.625-4.537-15-7
	c-4.927-2.239-10.625-6.209-16-8c-6.27-2.24-13.083-4.27-18.906-5.165c-2.016-0.447-6.494,0.448-8.286,1.344
	c-4.031,2.017-9.629,4.702-14.556,4.702c-2.911,0-8.565-0.553-11.253,0.119c-9.853,2.016-20.803,5.537-32,8
	c-28.664,5.822-56.665,8.178-86,14c-4.254,0.896-13.193,3.104-17,4c-4.703,1.344-11.88,9.298-13,14c0,0,11.297,16.298,16,21
	C-529.199-94.85-512.902-82-512.902-82z"/>
<path id="TAIL" d="M-539.116-133.575c-0.448-1.566-4.703-2.463-6.942-3.583c-7.166-3.583-16.229-5.603-23.844-7.842
	c-5.598-1.792-11.954-1.88-18-3c-12.541-2.015-24.819-4.166-34,3c0,8.958,0.938,16.328,9,17c12.764,1.119,27.997-10.046,43-4
	c3.583,1.344,7.089,3.433,10,5c1.792,1.12,6.193,5.433,10,7C-545.423-117.984-537.549-129.097-539.116-133.575z"/>
<path id="EAR1" d="M-365.344-164.701c-4.255-4.703-6.046-7.391-7.166-12.765c-2.239-10.077-6.27-16.347-13.436-22.395
	c-10.301-8.731-33.366-17.914-49.042-7.165c6.942,14.331,21.274,21.273,35.158,28.216c9.181,4.479,17.019,11.868,26.2,15.676
	C-371.839-162.462-364.001-163.134-365.344-164.701z"/>
<path id="EAR2" d="M-387.29-160.671c-1.12-10.077-11.42-16.795-22.393-19.482c-5.822-1.344-12.092-3.357-17.691-3.357
	c-11.645,0-22.841,4.479-27.096,10.973c3.807,5.15,12.316,5.15,18.811,7.613c1.567,0.672,2.911,2.016,4.254,2.464
	c11.197,3.807,31.127-4.927,35.158,3.357C-394.904-156.416-387.066-157.76-387.29-160.671z"/>
<path id="FRLEG" d="M-455.59-71.546c18.586,4.927,34.709,10.749,51.952,15.898c25.752,7.839,49.266,18.587,73.674,27.544
	c8.51,3.136,18.139,5.375,25.081,9.183c3.359,1.791,6.271,5.374,9.405,7.613c3.359,2.463,7.166,5.821,10.525,6.941
	c3.807,1.119,8.733,2.016,12.764,2.463c4.703,0.448,8.958,0.448,10.077-4.703c-23.065-15.45-47.922-28.887-72.554-43.219
	c-21.498-12.54-42.771-25.305-63.149-38.067c-2.911-1.792-6.718-3.136-8.062-6.494c0,0-25.752-14.332-41.427-5.374
	C-461.412-91.699-455.59-71.546-455.59-71.546z"/>
<path id="BLLEG" d="M-556.902-119C-556.678-119-557.126-119-556.902-119c0,8-3.297,13.746-8,18c-11.645,10.749-28.892,17.146-43,27
	c-2.463,1.792-6.68,5.59-8.695,6.037c-3.135,0.672-9.856-1.094-10.305-4.005c0-3,4.657-8.569,6-11.032c2.239-4.031,2.089-7.761,5-10
	c3.359-2.688,9.85-3.761,15-6C-586.794-104.822-570.114-113.626-556.902-119L-556.902-119z"/>
<path id="RRLEG" d="M-549.902-121c-1.344,4.703-2.761,10.193-5,14c-13.436,21.273-40.31,27.414-58,46
	c-3.135,3.359-11.691,12.106-12,18c0,3,5.761,6.433,8,8c3.583,2.24,6.297,4.448,11,4c4.703-2.688,0.208-11.417,2-15
	c1.12-2.239,7.641-3.433,11-5c23.065-10.077,44.592-18.49,69-27c4.255-1.567,8.641-3.776,12-4c0,0,11.258-11.981-8-29
	C-538.488-127.347-549.902-121-549.902-121z"/>
<path id="RX_x5F_WHITE_x5F_FILL" fill="#FFFFFF" d="M-190.677-76.248c1.792-2.239,6.047-6.046,5.822-8.285
	c-0.224-2.464-7.39-6.271-9.404-7.613c-20.603-14.332-42.548-26.872-62.478-40.531c-2.463-1.792-8.51-7.166-10.973-6.942
	c-4.479,0.672-0.672,5.15-1.344,9.854c-0.896,5.375-6.271,4.927-7.166,8.063c-0.896,2.688,0.989,6.02,0.317,8.706
	c-5,11-28.908,3.208-41,5c-2.016,1.567-2.328,3.536-3,6c25.976,25.08,52.64,49.041,79.736,73.002
	C-224.267-44.896-205.233-58.334-190.677-76.248L-190.677-76.248z"/>
<path id="RX" fill="#CC0000" d="M-252.707-93.938l-8.509-7.614l6.942-7.838l8.733,7.613c2.911,2.464,3.135,5.374,0.896,7.839
	C-247.108-91.252-249.796-91.252-252.707-93.938L-252.707-93.938z M-251.811-77.815l0.224-5.821l0,0
	c5.374,2.016,10.973,0.446,14.556-3.808c5.374-6.047,4.479-13.437-2.463-19.481l-16.795-14.779l-29.559,33.365l7.166,6.271
	l12.092-13.659c2.463,2.238,4.479,4.927,5.375,6.493l-0.224,12.766l-16.571,2.463l8.286,7.166l8.062-1.12l-0.224,8.286l9.405,8.285
	l0.448-17.915l15.676-2.239l-8.286-7.165L-251.811-77.815L-251.811-77.815z"/>
    </g>
<path d="M-161.902-86h16v-102h-16v-14l61.336,0.102c7.838,0,15.474,0.126,21.968,3.262c13.436,5.821,22.169,19.481,22.169,36.948
	c0,18.362-9.629,33.143-24.633,38.292c-6.046,2.239-12.675,2.396-19.84,2.396h-26v35h16v14h-51V-86L-161.902-86z M-102.902-136
	c5.822,0,10.42-0.608,14.45-2.399c8.286-3.583,13.55-12.403,13.55-23.601c0-10.525-4.593-18.052-11.982-21.858
	c-4.03-2.238-9.629-3.135-15.898-3.135l-24.12-0.007v51H-102.902z"/>
<path d="M-9.902-168c26.647,0,41,19.592,41,44c0,2.463,0,7,0,7h-69c1.119,20.602,15.429,32,32,32
	c16.348,0,28.186-10.282,28.186-10.282l7.39,13.212c0,0-14.108,12.988-36.501,12.988c-29.336,0-50.074-21.149-50.074-48.918
	C-57.127-148.007-36.55-168-9.902-168z M12.098-128c-0.448-16.348-10.417-25.057-22.285-25.057c-13.66,0-24.251,9.381-26.715,25.057
	H12.098z"/>
<path d="M46.098-151h-16v-14h16v-26h18v26h22v14h-22v44c0,19.034,12.058,21,19,21c2.688,0,5,0,5,0v15c0,0-2.193,0-6,0
	c-11.868,0-36-2.649-36-34V-151z"/>
<path d="M158.098-204c15.675,0,50,5.846,50,26v16h-18v-11c0-11.421-19.908-15-32-15c-27.992,0-48,21.441-48,51
	c0,30.902,21.561,52,50,52c9.182,0,32.15-3.564,32.15-15.433L192.098-111h18v17c0,19.258-32.861,25-51,25
	c-39.188,0-67.844-30.089-67.844-68.158C91.254-175.898,120.253-204,158.098-204z"/>
<path d="M269.098-129h6v-4c0-14.78-8.579-19-20-19c-14.779,0-27,9-27,9l-8-14c0,0,14.279-11,36-11c23.737,0,36,13.263,36,37v41
	c0,2.688,1.536,4,4,4h10v14h-19c-8.285,0-11-3.953-11-10v-1c0-3.583,0-6,0-6h-1c0,0-7.158,20-30,20c-15.451,0-31-9.741-31-29
	C214.323-127.335,253.422-129,269.098-129z M249.098-83c15.899,0,26-16.116,26-30v-4h-5c-8.51,0-38,0.085-38,18
	C232.098-90.938,238.349-83,249.098-83z"/>
<path d="M310.098-85h12v-63c0-2.688-0.537-3-3-3h-12v-14h21c8.062,0,12,3.387,12,11v6c0,3.807-0.502,6.14-0.502,6.14h0.447
	c4.255-13.659,15.723-24.14,30.055-24.14c2.464,0,4,0,4,0v18c0,0-2.088,0-5,0c-19.93,0-28,19.637-28,38v25h13v13h-45v-13H310.098z"
	/>
<path d="M421.1-167.918c26.647,0,41,19.592,41,44c0,2.463,0,7,0,7h-69c1.119,20.602,15.429,32,32,32
	c16.348,0,28.186-10.282,28.186-10.282l7.391,13.212c0,0-14.108,12.988-36.501,12.988c-29.336,0-50.074-21.149-50.074-48.918
	C373.875-147.925,394.452-167.918,421.1-167.918z M443.1-127.918c-0.448-16.348-10.417-25.057-22.285-25.057
	c-13.66,0-24.251,9.381-26.715,25.057H443.1z"/>
<path fill="#CC0000" d="M472.098-168h28c10.076,0,14.193,0.656,18,2c9.854,3.583,16,13.235,16,26c0,12.316-6.475,23.417-17,27l0,0
	c0,0,1.209,0.642,3,4l20,38h-15l-20-38h-21v38h-13v-97H472.098z M503.067-121.706c10.525,0,17.031-6.546,17.031-17.294
	c0-7.166-2.699-12.266-7.626-14.953c-2.688-1.344-5.822-2.239-13.212-2.239h-15.676v34.486H503.067L503.067-121.706z"/>
<path fill="#CC0000" d="M570.098-98c0,0-0.523,1.598-1.419,3.165L554.098-71h-15l23-36l-22-34h16l12,21c1.119,1.791,2,4,2,4h1
	c0,0,0.881-2.209,2-4l13-21h15l-22,34l24,36h-16l-14.164-23.835c-0.896-1.567-1.836-3.165-1.836-3.165H570.098z"/>
<path d="M615.098-165c6.494,0,11.804,5.449,11.804,11.943c0,6.492-5.532,12.057-11.804,12.057c-6.27,0-11-5.507-11-12
	C604.098-159.494,608.829-165,615.098-165z M615.098-143c5.15,0,10-4.626,10-10c0-5.375-4.85-10-10-10s-9,4.625-9,10
	C606.098-147.402,609.948-143,615.098-143z M612.098-159h5c2,1,3,2,3,4c0,1.791-1,2-2,3l-0.153,0.063c0,0-0.069,0.489,0.153,0.938
	l2,4h-2l-2-4h-2v4h-2V-159z M616.098-153c1.119,0,2-0.656,2-2c0-1.343-0.656-2-2-2h-2v4H616.098z"/>
<g id="TAGLINE">
	<path d="M-156.902-52h4v19h23v-19h4v41h-4v-19h-23v19h-4V-52z"/>
	<path d="M-100.209-29.223h1.568v-0.672c0-5.599-2.911-7.391-7.166-7.391c-4.703,0-8.062,2.688-8.062,2.688l-1.792-2.911
		c0,0,3.807-3.135,10.301-3.135c6.942,0,10.457,3.477,10.457,10.643v19h-4v-3c0-1.344,0.709-2.906,0.709-2.906h-0.224
		c0,0-2.319,5.906-9.485,5.906c-4.703,0-9.997-2.323-9.997-8.146C-117.674-28.998-105.134-29.223-100.209-29.223z M-107.374-13.995
		c5.374,0,8.733-5.598,8.733-10.748v-1.344h-1.568c-4.479,0-13.436,0.224-13.436,6.494
		C-113.644-16.906-111.629-13.995-107.374-13.995z"/>
	<path d="M-85.902-40h4v3c0,1.344,0,2,0,2l0,0c0,0,2.387-6,10-6c7.614,0,12,6.043,12,15s-4.61,15-12,15c-6.942,0-10-5-10-5l0,0
		c0,0,0,0.656,0,2V0h-4V-40L-85.902-40z M-72.902-15c5.15,0,9-3.61,9-11c0-6.941-2.85-11-8-11c-4.702,0-10,2.715-10,11
		C-81.902-20.401-78.724-15-72.902-15z"/>
	<path d="M-51.902-40h4v2c0,1.344-0.578,2.731-0.578,2.731h0.225c0,0,2.74-5.731,10.354-5.731c7.614,0,12,6.043,12,15
		s-5.61,15-13,15c-6.941,0-9.13-5.234-9.13-5.234h-0.224c0,0,0.224,1.12,0.224,2.465v13.658h-3.807L-51.902-40L-51.902-40z
		 M-38.902-15c5.15,0,9-3.61,9-11c0-6.941-3.85-11-9-11c-4.702,0-9,2.715-9,11C-47.902-20.401-44.724-15-38.902-15z"/>
	<path d="M-18.902-52h4v5h-4V-52z M-18.902-40h4v29h-4V-40z"/>
	<path d="M7.098-40c7.838,0,11,5.834,11,13c0,0.672,0,1,0,1h-22c0,7,4.953,12,11,12c5.15,0,10-4,10-4l1,3c0,0-4.729,4-11,4
		c-8.509,0-14-6.043-14-15C-6.902-35.405-0.739-40,7.098-40z M15.098-29c-0.224-6.046-3.745-8-8-8c-4.702,0-9.104,2.401-10,8H15.098
		z"/>
	<path d="M26.098-41h4v5c0,1.344,0,3,0,3l0,0c1.344-4.255,6.521-8,11-8c0.896,0,0,0,0,0v5c0,0-1.328,0-2,0c-4.031,0-6.881,2.746-8,7
		c-0.672,1.792-1,3.209-1,5v13h-4V-41z"/>
	<path d="M45.124-16.234h4.255L45.124-5.933h-3.359L45.124-16.234z"/>
	<path d="M177.469-51.615h3.807v32.471c0,3.807,1.791,4.255,3.135,4.255c0.448,0,0.896,0,0.896,0v3.583c0,0-0.672,0.224-1.344,0.224
		c-2.463,0-6.718-0.672-6.718-6.941v-33.59L177.469-51.615L177.469-51.615z"/>
	<path d="M193.098-36h-4v-4h4v-8h4v8h7v4h-7v15c0,6.718,3.686,6,5.925,6c0.896,0,1.075,0,1.075,0v4c0,0-0.104,0-1,0
		c-3.358,0-10-0.371-10-10V-36z"/>
	<path d="M211.098-52h4v16c0,1.344,0,2,0,2l0,0c1.12-2.688,4.506-7,11-7c7.166,0,10,3.834,10,11v18h-4l-0.214-16.774
		c0-4.479-1.188-8.226-6.786-8.226c-4.926,0-8.665,3.075-10.009,7.777c-0.448,1.119,0.009,2.879,0.009,4.223v13h-4V-52z"/>
	<path d="M326.098-52h14c7.166,0,12,5.61,12,13s-4.834,12-12,12h-10v15h-4V-52z M340.098-31c5.374,0,8.231-3.148,8.231-8.523
		c0-5.374-3.081-8.477-8.231-8.477h-10v17h9H340.098z"/>
	<path d="M409.463-17.802c0,0,3.261,3.802,8.635,3.802c3.136,0,6-2.089,6-5c0-6.271-16-4.595-16-14c0-5.15,4.85-7,10-7
		c6.046,0,8.832,2.492,8.832,2.492l-1.792,2.911c0,0-2.337-2.403-7.04-2.403c-2.911,0-6,0.864-6,4c0,6.27,16,4.595,16,14
		c0,4.702-4.178,8-10,8c-6.941,0-10.65-3.891-10.65-3.891L409.463-17.802z"/>
	<path d="M75.098-52h4v19h23v-19h4v41h-4v-19h-23v19h-4V-52z"/>
	<path d="M129.098-40c7.838,0,11,5.834,11,13c0,0.672,0,1,0,1h-22c0,7,4.953,12,11,12c5.15,0,10-4,10-4l1,3c0,0-4.729,4-11,4
		c-8.509,0-14-6.043-14-15C115.098-35.405,121.261-40,129.098-40z M137.098-29c-0.224-6.046-3.745-8-8-8c-4.702,0-9.104,2.401-10,8
		H137.098z"/>
	<path d="M163.788-29.223h1.568v-0.672c0-5.599-2.911-7.391-7.166-7.391c-4.703,0-8.062,2.688-8.062,2.688l-1.792-2.911
		c0,0,3.807-3.135,10.301-3.135c6.942,0,10.457,3.477,10.457,10.643v19h-4v-3c0-1.344,0.709-2.906,0.709-2.906h-0.224
		c0,0-2.319,5.906-9.485,5.906c-4.703,0-9.997-2.323-9.997-8.146C146.323-28.998,158.863-29.223,163.788-29.223z M156.623-13.995
		c5.374,0,8.733-5.598,8.733-10.748v-1.344h-1.568c-4.479,0-13.436,0.224-13.436,6.494
		C150.353-16.906,152.369-13.995,156.623-13.995z"/>
	<rect x="245.098" y="-53" width="4" height="5"/>
	<rect x="245.098" y="-41" width="4" height="29"/>
	<path d="M270.098-41c7.838,0,11,5.834,11,13c0,0.672,0,1,0,1h-22c0,7,4.953,12,11,12c5.15,0,10-4,10-4l1,3c0,0-4.729,4-11,4
		c-8.509,0-14-6.043-14-15C256.098-36.406,262.434-41,270.098-41z M278.098-30c-0.224-6.046-3.745-8-8-8c-4.702,0-9.104,2.401-10,8
		H278.098z"/>
	<path d="M290.098-42h4v5c0,1.344,0,3,0,3l0,0c1.344-4.255,6.521-8,11-8c0.896,0,0,0,0,0v5c0,0-1.328,0-2,0
		c-4.031,0-6.881,2.746-8,7c-0.672,1.792-1,3.209-1,5v13h-4V-42z"/>
	<path d="M391.098-36h-4v-4h4v-8h4v8h7v4h-7v15c0,6.718,3.686,6,5.925,6c0.896,0,1.075,0,1.075,0v4c0,0-0.104,0-1,0
		c-3.358,0-10-0.371-10-10V-36z"/>
	<path d="M372.098-40c7.838,0,11,5.834,11,13c0,0.672,0,1,0,1h-22c0,7,4.953,12,11,12c5.15,0,10-4,10-4l1,3c0,0-4.729,4-11,4
		c-8.509,0-14-6.043-14-15C358.098-35.405,364.261-40,372.098-40z M380.098-29c-0.224-6.046-3.745-8-8-8c-4.702,0-9.104,2.401-10,8
		H380.098z"/>
</g>
</svg>
